<svg width="59" height="62" viewBox="0 0 59 62" fill="none" xmlns="http://www.w3.org/2000/svg">
<path d="M37.3457 50.9485C38.1003 50.6068 38.9893 50.9419 39.3311 51.6965C39.6727 52.4511 39.3385 53.3401 38.584 53.6819C35.7944 54.9451 32.7203 55.6448 29.4941 55.6448C26.2679 55.6448 23.1939 54.9451 20.4043 53.6819C19.6498 53.3401 19.3155 52.4511 19.6572 51.6965C19.999 50.9419 20.8879 50.6068 21.6426 50.9485C24.0543 52.0405 26.7067 52.6448 29.4941 52.6448C32.2816 52.6448 34.934 52.0405 37.3457 50.9485ZM6.41406 31.2698C6.41406 28.0655 6.99987 25.0011 8.06738 22.1926C8.36174 21.4183 9.22857 21.0292 10.0029 21.3235C10.7772 21.6179 11.1664 22.4847 10.8721 23.259C9.93289 25.73 9.41406 28.4331 9.41406 31.2698C9.41406 34.1065 9.9329 36.8096 10.8721 39.2805C11.1664 40.0548 10.7772 40.9217 10.0029 41.2161C9.22857 41.5104 8.36174 41.1213 8.06738 40.3469C6.99988 37.5384 6.41406 34.474 6.41406 31.2698ZM49.5742 31.2698C49.5742 28.4331 49.0554 25.73 48.1162 23.259C47.8219 22.4847 48.2111 21.6179 48.9854 21.3235C49.7597 21.0291 50.6266 21.4183 50.9209 22.1926C51.9884 25.0011 52.5742 28.0655 52.5742 31.2698C52.5742 34.474 51.9884 37.5384 50.9209 40.3469C50.6266 41.1213 49.7597 41.5104 48.9854 41.2161C48.2111 40.9217 47.8219 40.0548 48.1162 39.2805C49.0554 36.8096 49.5742 34.1065 49.5742 31.2698ZM29.4941 6.89478C32.7203 6.89478 35.7944 7.59447 38.584 8.85767C39.3384 9.19949 39.6727 10.0885 39.3311 10.843C38.9893 11.5976 38.1003 11.9328 37.3457 11.5911C34.934 10.499 32.2816 9.89478 29.4941 9.89478C26.7068 9.89478 24.0543 10.499 21.6426 11.5911C20.8879 11.9328 19.999 11.5976 19.6572 10.843C19.3155 10.0884 19.6498 9.19947 20.4043 8.85767C23.1939 7.59446 26.2679 6.89478 29.4941 6.89478Z" fill="white"/>
<path d="M29.5179 45.1981C34.8149 45.1981 39.109 40.6463 39.109 35.0314C39.109 29.4165 34.8149 24.8647 29.5179 24.8647C24.2209 24.8647 19.9268 29.4165 19.9268 35.0314C19.9268 40.6463 24.2209 45.1981 29.5179 45.1981Z" fill="white"/>
<path d="M29.8175 25.4748C31.9032 25.4748 33.594 23.6825 33.594 21.4716C33.594 19.2608 31.9032 17.4685 29.8175 17.4685C27.7318 17.4685 26.041 19.2608 26.041 21.4716C26.041 23.6825 27.7318 25.4748 29.8175 25.4748Z" fill="white"/>
</svg>
